<?xml version="1.0" standalone="no"?>
<!DOCTYPE svg PUBLIC "-//W3C//DTD SVG 20010904//EN"
 "http://www.w3.org/TR/2001/REC-SVG-20010904/DTD/svg10.dtd">
<svg version="1.0" xmlns="http://www.w3.org/2000/svg"
 width="96.000000pt" height="96.000000pt" viewBox="0 0 96.000000 96.000000"
 preserveAspectRatio="xMidYMid meet">
<metadata>
Created by potrace 1.14, written by Peter Selinger 2001-2017
</metadata>
<g transform="translate(0.000000,96.000000) scale(0.100000,-0.100000)"
fill="#000000" stroke="none">
<path d="M443 861 c-13 -14 -23 -17 -33 -11 -29 19 -70 11 -82 -14 -8 -20 -20
-26 -52 -28 -36 -3 -41 -7 -49 -34 -7 -24 -17 -34 -41 -41 -27 -8 -31 -13 -34
-49 -2 -32 -8 -44 -28 -52 -26 -12 -32 -48 -14 -81 7 -14 5 -23 -10 -36 -25
-23 -25 -49 -1 -72 14 -13 17 -23 11 -33 -19 -29 -11 -70 14 -82 20 -8 26 -20
28 -52 3 -36 7 -41 34 -49 24 -7 34 -17 41 -41 8 -27 13 -31 49 -34 32 -2 44
-8 52 -28 12 -25 53 -33 82 -14 10 6 20 3 33 -11 10 -10 26 -19 37 -19 11 0
27 9 37 19 13 14 23 17 33 11 29 -19 70 -11 82 14 8 20 20 26 52 28 36 3 41 7
49 34 7 24 17 34 41 41 27 8 31 13 34 49 2 32 8 44 28 52 25 12 33 53 14 82
-6 10 -3 20 11 33 24 23 24 51 0 74 -14 13 -17 23 -11 33 19 29 11 70 -14 82
-20 8 -26 20 -28 52 -3 36 -7 41 -34 49 -24 7 -34 17 -41 41 -8 27 -13 31 -49
34 -32 2 -44 8 -52 28 -12 25 -53 33 -82 14 -10 -6 -20 -3 -33 11 -10 10 -26
19 -37 19 -11 0 -27 -9 -37 -19z m190 -299 c-49 -49 -93 -109 -160 -219 -7
-13 -17 -23 -21 -23 -5 0 -27 27 -50 60 -24 33 -66 78 -93 100 -35 27 -45 40
-32 40 39 0 94 -22 137 -55 39 -30 46 -32 50 -17 9 28 86 98 150 136 33 20 63
36 68 36 4 0 -18 -26 -49 -58z"/>
</g>
</svg>
